<?xml version="1.0" encoding="UTF-8" standalone="no"?>
<!-- Created with Inkscape (http://www.inkscape.org/) -->

<svg
   xmlns:dc="http://purl.org/dc/elements/1.1/"
   xmlns:cc="http://creativecommons.org/ns#"
   xmlns:rdf="http://www.w3.org/1999/02/22-rdf-syntax-ns#"
   xmlns:svg="http://www.w3.org/2000/svg"
   xmlns="http://www.w3.org/2000/svg"
   xmlns:sodipodi="http://sodipodi.sourceforge.net/DTD/sodipodi-0.dtd"
   xmlns:inkscape="http://www.inkscape.org/namespaces/inkscape"
   width="658.61963"
   height="658.61963"
   viewBox="0 0 174.25978 174.25977"
   version="1.1"
   id="svg8"
   sodipodi:docname="pprotator.svg"
   inkscape:version="0.92.0 r15299"
   inkscape:export-filename="C:\Users\Steven\Desktop\pprotator.png"
   inkscape:export-xdpi="18.66"
   inkscape:export-ydpi="18.66">
  <defs
     id="defs2" />
  <sodipodi:namedview
     id="base"
     pagecolor="#ffffff"
     bordercolor="#666666"
     borderopacity="1.0"
     inkscape:pageopacity="0.0"
     inkscape:pageshadow="2"
     inkscape:zoom="0.7"
     inkscape:cx="213.29201"
     inkscape:cy="123.28899"
     inkscape:document-units="mm"
     inkscape:current-layer="layer1"
     showgrid="false"
     inkscape:window-width="1453"
     inkscape:window-height="1186"
     inkscape:window-x="547"
     inkscape:window-y="23"
     inkscape:window-maximized="0"
     units="px"
     fit-margin-top="16"
     fit-margin-left="16"
     fit-margin-right="16"
     fit-margin-bottom="16" />
  <metadata
     id="metadata5">
    <rdf:RDF>
      <cc:Work
         rdf:about="">
        <dc:format>image/svg+xml</dc:format>
        <dc:type
           rdf:resource="http://purl.org/dc/dcmitype/StillImage" />
        <dc:title></dc:title>
      </cc:Work>
    </rdf:RDF>
  </metadata>
  <g
     inkscape:label="Layer 1"
     inkscape:groupmode="layer"
     id="layer1"
     transform="translate(-20.883086,-79.477034)">
    <g
       aria-label="PP"
       transform="matrix(0.26458333,0,0,0.26458333,13.898015,142.19644)"
       style="font-style:normal;font-weight:normal;font-size:466.66671753px;line-height:25px;font-family:sans-serif;text-align:center;letter-spacing:0px;word-spacing:0px;text-anchor:middle;display:inline;fill:#000000;fill-opacity:1;stroke:none"
       id="flowRoot4485"
       inkscape:export-filename="C:\Users\Steven\Desktop\pprotator.png"
       inkscape:export-xdpi="13.99"
       inkscape:export-ydpi="13.99">
      <path
         d="M 153.64093,-53.773457 V 74.058588 h 57.87761 q 32.12891,0 49.67448,-16.634117 17.54558,-16.634116 17.54558,-47.395838 0,-30.533858 -17.54558,-47.167974 -17.54557,-16.634116 -49.67448,-16.634116 z m -46.02865,-37.825525 h 103.90626 q 57.19402,0 86.36069,25.976565 29.39453,25.748701 29.39453,75.65105 0,50.358078 -29.39453,76.106779 -29.16667,25.748698 -86.36069,25.748698 h -57.87761 v 136.71877 h -46.02865 z"
         style="font-size:466.66671753px;text-align:center;text-anchor:middle"
         id="path4510"
         inkscape:connector-curvature="0" />
      <path
         d="M 435.28159,-53.773457 V 74.058588 h 57.87761 q 32.12891,0 49.67448,-16.634117 17.54558,-16.634116 17.54558,-47.395838 0,-30.533858 -17.54558,-47.167974 -17.54557,-16.634116 -49.67448,-16.634116 z M 389.25293,-91.598982 H 493.1592 q 57.19401,0 86.36068,25.976565 29.39454,25.748701 29.39454,75.65105 0,50.358078 -29.39454,76.106779 -29.16667,25.748698 -86.36068,25.748698 h -57.87761 v 136.71877 h -46.02866 z"
         style="font-size:466.66671753px;text-align:center;text-anchor:middle"
         id="path4512"
         inkscape:connector-curvature="0" />
    </g>
  </g>
  <path
     style="fill:#71cc5b;fill-opacity:1;stroke:#000000;stroke-width:0.29071251px;stroke-linecap:butt;stroke-linejoin:miter;stroke-opacity:1"
     d="m 84.245464,120.35814 c -101.31683,0.53454 -101.962165,-76.973622 -0.64533,-76.973622 -101.962167,0 -120.676739,89.802562 1.29066,89.802562 z"
     id="path4494"
     inkscape:connector-curvature="0"
     sodipodi:nodetypes="ccc"
     inkscape:export-filename="C:\Users\Steven\Desktop\pprotator.png"
     inkscape:export-xdpi="13.99"
     inkscape:export-ydpi="13.99" />
  <path
     sodipodi:nodetypes="ccc"
     inkscape:connector-curvature="0"
     id="path4496"
     d="m 85.877394,120.35559 c 106.296396,0.5345 106.973446,-76.967504 0.67704,-76.967504 106.973456,0 126.607826,89.795424 -1.35409,89.795424 z"
     style="fill:#71cc5b;fill-opacity:1;stroke:#000000;stroke-width:0.29775903px;stroke-linecap:butt;stroke-linejoin:miter;stroke-opacity:1"
     inkscape:export-filename="C:\Users\Steven\Desktop\pprotator.png"
     inkscape:export-xdpi="13.99"
     inkscape:export-ydpi="13.99" />
  <path
     style="fill:#71cc5b;fill-opacity:1;stroke:#000000;stroke-width:0.26458332px;stroke-linecap:butt;stroke-linejoin:miter;stroke-opacity:1"
     d="m 77.674518,108.86555 v 36.34866 l 18.441596,-18.4416 z"
     id="path4498"
     inkscape:connector-curvature="0"
     inkscape:export-filename="C:\Users\Steven\Desktop\pprotator.png"
     inkscape:export-xdpi="13.99"
     inkscape:export-ydpi="13.99" />
</svg>
